<?xml version="1.0" encoding="utf-8"?>
<svg class="logo logo-klickrent" version="1.1" xmlns="http://www.w3.org/2000/svg" xmlns:xlink="http://www.w3.org/1999/xlink" x="0px" y="0px" viewBox="444 55.5 448 107"  xml:space="preserve">
  <style type="text/css">
    .blue{fill:#00AEEF;}
  	.black{fill:#333;}
  </style>
  <title>klickrent</title>
  <desc>klickrent logo</desc>
  <g class="klicrent_logo-symbol">
    <path class="symbol-hexagon blue" d="M455.5,77.8l31.6-18.3c4.6-2.7,10.3-2.7,15,0l31.6,18.3c4.6,2.7,7.5,7.6,7.5,13v36.5c0,5.3-2.9,10.3-7.5,13  l-31.6,18.3c-4.6,2.7-10.3,2.7-15,0l-31.6-18.3c-4.6-2.7-7.5-7.6-7.5-13V90.8C448,85.4,450.9,80.5,455.5,77.8z"/>
    <path class="symbol-arrow black" d="M516.1,92.3H481c-2.9,0-4.7,3.1-3.3,5.7l4.4,7.7c0.4,0.8,0.2,1.9-0.6,2.4l-11.3,6.7c-0.9,0.5-1.2,1.7-0.7,2.5l5.3,9  c0.5,0.9,1.7,1.2,2.5,0.7l10.4-6.1l0,0l0.7-0.4c0.9-0.5,2-0.2,2.5,0.7v0.1l0,0l4.2,7.2c1.5,2.5,5.1,2.5,6.5,0l17.5-30.4  C520.8,95.5,519,92.3,516.1,92.3z"/>
  </g>
  <g class="klicrent_logo-text">
    <path class="char-k black" d="M574.7,115.7l5.3-6.8l12.6-13.7h13.8l-17.8,19.5l18.9,25.4h-14.1l-12.9-18.2l-5.3,4.2v14H563V77.6h12.2v27.9  L574.7,115.7L574.7,115.7z"/>
    <path class="char-l black" d="M623.3,140.1h-12.2V77.6h12.2V140.1z"/>
    <path class="char-i black" d="M630.7,83.6c0-4,2.2-6,6.7-6c4.4,0,6.7,2,6.7,6c0,1.9-0.6,3.4-1.7,4.4c-1.1,1.1-2.8,1.6-5,1.6  C633,89.7,630.7,87.6,630.7,83.6z M643.5,140.1h-12.2V95.2h12.2V140.1z"/>
    <path class="char-c black" d="M669.7,140.9c-14,0-21-7.7-21-23c0-7.6,1.9-13.5,5.7-17.5c3.8-4,9.3-6,16.3-6c5.2,0,9.9,1,14,3.1l-3.6,9.5  c-1.9-0.8-3.7-1.4-5.4-1.9c-1.7-0.5-3.3-0.7-5-0.7c-6.4,0-9.6,4.5-9.6,13.6c0,8.8,3.2,13.2,9.6,13.2c2.4,0,4.5-0.3,6.5-0.9  s4-1.6,6-3v10.5c-2,1.3-4,2.1-6,2.6C675.3,140.7,672.7,140.9,669.7,140.9z"/>
    <path class="char-k black" d="M701.4,115.7l5.3-6.8l12.6-13.7h13.8l-17.8,19.5l18.9,25.4H720l-12.9-18.2l-5.3,4.2v14h-12.2V77.6h12.2v27.9 l-0.6,10.2H701.4z"/>
    <path class="char-r blue" d="M762.4,94.4c1.7,0,3,0.1,4.1,0.4l-0.9,11.5c-1-0.3-2.2-0.4-3.6-0.4c-3.9,0-7,1-9.1,3c-2.2,2-3.3,4.8-3.3,8.4  v22.9h-12.2V95.3h9.3l1.8,7.6h0.6c1.4-2.5,3.3-4.5,5.6-6.1S759.6,94.4,762.4,94.4z"/>
    <path class="char-e blue" d="M790.2,140.9c-7.2,0-12.9-2-16.9-6c-4.1-4-6.1-9.6-6.1-16.9c0-7.5,1.9-13.3,5.6-17.4c3.8-4.1,9-6.2,15.6-6.2  c6.3,0,11.3,1.8,14.8,5.4s5.3,8.6,5.3,15v5.9h-29c0.1,3.5,1.2,6.2,3.1,8.2s4.6,2.9,8.1,2.9c2.7,0,5.3-0.3,7.7-0.8s4.9-1.5,7.6-2.7  v9.5c-2.1,1.1-4.4,1.9-6.9,2.4C796.7,140.7,793.7,140.9,790.2,140.9z M788.5,103.1c-2.6,0-4.6,0.8-6.1,2.5c-1.5,1.6-2.3,4-2.5,7  H797c-0.1-3-0.8-5.4-2.4-7C793.1,103.9,791.1,103.1,788.5,103.1z"/>
    <path class="char-n blue" d="M855.4,140.1h-12.2v-26.2c0-3.2-0.6-5.7-1.7-7.3c-1.2-1.6-3-2.4-5.5-2.4c-3.4,0-5.9,1.1-7.4,3.4  s-2.3,6.1-2.3,11.4v21.1H814V95.2h9.4l1.6,5.7h0.7c1.4-2.2,3.2-3.8,5.6-4.9c2.4-1.1,5.1-1.7,8.2-1.7c5.2,0,9.2,1.4,11.9,4.2  c2.7,2.8,4.1,6.9,4.1,12.2L855.4,140.1L855.4,140.1z"/>
    <path class="char-t blue" d="M882.2,131.2c2.1,0,4.7-0.5,7.7-1.4v9.1c-3.1,1.4-6.8,2-11.2,2c-4.9,0-8.5-1.2-10.7-3.7  c-2.2-2.5-3.4-6.2-3.4-11.1v-21.6h-5.9v-5.2l6.7-4.1l3.5-9.5h7.8v9.6h12.6v9.2h-12.6v21.6c0,1.7,0.5,3,1.5,3.9  C879.3,130.8,880.6,131.2,882.2,131.2z"/>
  </g>
</svg>
